<?xml version="1.0" standalone="no"?>
<!DOCTYPE svg PUBLIC "-//W3C//DTD SVG 20010904//EN"
 "http://www.w3.org/TR/2001/REC-SVG-20010904/DTD/svg10.dtd">
<svg version="1.0" xmlns="http://www.w3.org/2000/svg"
 width="512.000000pt" height="512.000000pt" viewBox="0 0 512.000000 512.000000"
 preserveAspectRatio="xMidYMid meet">

<g transform="translate(0.000000,512.000000) scale(0.100000,-0.100000)"
fill="#000000" stroke="none">
<path d="M81 5102 c-19 -9 -44 -30 -55 -45 l-21 -28 0 -2469 0 -2469 21 -28
c11 -15 36 -36 55 -45 32 -17 171 -18 2479 -18 2308 0 2447 1 2479 18 19 9 44
30 55 45 l21 28 0 2469 0 2469 -21 28 c-11 15 -36 36 -55 45 -32 17 -171 18
-2479 18 -2308 0 -2447 -1 -2479 -18z m969 -558 c70 -21 117 -52 168 -109 146
-166 89 -434 -113 -535 -43 -22 -63 -25 -150 -25 -90 0 -105 3 -153 28 -109
57 -180 163 -190 283 -19 239 209 426 438 358z m1655 -18 c223 -102 268 -404
85 -569 -202 -182 -527 -67 -571 203 -28 173 87 347 258 390 61 15 167 4 228
-24z m1603 -1 c263 -120 269 -486 10 -622 -48 -25 -63 -28 -153 -28 -87 0
-107 3 -150 25 -202 101 -259 369 -113 535 107 121 262 156 406 90z m-3205
-1692 c74 -33 148 -112 177 -191 30 -78 25 -194 -11 -267 -35 -73 -116 -149
-186 -175 -186 -70 -383 20 -454 208 -56 150 16 337 160 416 97 52 209 55 314
9z m1542 22 c112 -29 209 -120 246 -230 7 -22 12 -72 12 -112 -2 -166 -123
-305 -287 -331 -209 -33 -397 123 -399 331 0 40 5 90 12 112 36 108 134 201
241 229 72 19 103 19 175 1z m1671 -25 c113 -55 185 -166 192 -295 8 -154 -93
-298 -242 -345 -113 -36 -253 -1 -339 83 -73 73 -100 132 -105 232 -5 101 19
172 85 245 106 118 266 149 409 80z m1 -1735 c165 -83 149 -335 -25 -385 -26
-8 -571 -10 -1808 -8 l-1770 3 -37 25 c-78 53 -116 158 -87 244 16 50 66 105
115 127 38 18 119 19 1801 19 l1760 0 51 -25z"/>
</g>
</svg>
